<?xml version="1.0" encoding="UTF-8" standalone="no"?>
<!DOCTYPE score-partwise
  PUBLIC "-//Recordare//DTD MusicXML 3.1 Partwise//EN" "http://www.musicxml.org/dtds/partwise.dtd">
<score-partwise version="3.0">
  <identification>
      <encoding>
         <software>Finale for Mac</software>
         <encoding-date>2018-06-13</encoding-date>
         <supports attribute="new-system" element="print" type="yes" value="yes"/>
         <supports attribute="new-page" element="print" type="yes" value="yes"/>
         <supports element="accidental" type="yes"/>
         <supports element="beam" type="yes"/>
         <supports element="stem" type="yes"/>
      </encoding>
  </identification>
  <defaults>
      <scaling>
         <millimeters>5.4102</millimeters>
         <tenths>40</tenths>
      </scaling>
      <page-layout>
         <page-height>2196</page-height>
         <page-width>1553</page-width>
         <page-margins type="both">
            <left-margin>111</left-margin>
            <right-margin>111</right-margin>
            <top-margin>111</top-margin>
            <bottom-margin>111</bottom-margin>
         </page-margins>
      </page-layout>
      <system-layout>
         <system-margins>
            <left-margin>25</left-margin>
            <right-margin>0</right-margin>
         </system-margins>
         <system-distance>103</system-distance>
         <top-system-distance>103</top-system-distance>
      </system-layout>
      <staff-layout>
         <staff-distance>70</staff-distance>
      </staff-layout>
      <appearance>
         <line-width type="stem">0.9375</line-width>
         <line-width type="beam">5</line-width>
         <line-width type="staff">0.9375</line-width>
         <line-width type="light barline">1.5625</line-width>
         <line-width type="heavy barline">5</line-width>
         <line-width type="leger">1.5625</line-width>
         <line-width type="ending">0.7487</line-width>
         <line-width type="wedge">0.7487</line-width>
         <line-width type="enclosure">0.7487</line-width>
         <line-width type="tuplet bracket">0.7487</line-width>
         <note-size type="grace">60</note-size>
         <note-size type="cue">60</note-size>
         <distance type="hyphen">120</distance>
         <distance type="beam">8</distance>
      </appearance>
      <music-font font-family="Maestro,engraved" font-size="15.3"/>
      <word-font font-family="Times New Roman" font-size="7.7"/>
      <lyric-font font-family="Finale Lyrics" font-size="7.7"/>
  </defaults>
  <part-list>
      <score-part id="P1">
         <part-name>Voice</part-name>
         <part-name-display>
            <display-text font-family="Plantin MT Std">Voice</display-text>
         </part-name-display>
         <score-instrument id="P1-I1">
            <instrument-name>Voice</instrument-name>
            <instrument-sound>voice.vocals</instrument-sound>
            <ensemble/>
         </score-instrument>
         <midi-instrument id="P1-I1">
            <midi-channel>1</midi-channel>
            <midi-program>1</midi-program>
            <volume>79</volume>
            <pan>0</pan>
         </midi-instrument>
      </score-part>
      <score-part id="P2">
         <part-name>Piano</part-name>
         <part-name-display>
            <display-text font-family="Plantin MT Std">Piano</display-text>
         </part-name-display>
         <score-instrument id="P2-I2">
            <instrument-name>Piano</instrument-name>
            <instrument-sound>keyboard.piano</instrument-sound>
         </score-instrument>
         <midi-instrument id="P2-I2">
            <midi-channel>2</midi-channel>
            <midi-program>1</midi-program>
            <volume>79</volume>
            <pan>-18</pan>
         </midi-instrument>
      </score-part>
  </part-list>
  <!--=========================================================-->
  <part id="P1">
      <measure number="1" width="726">
         <print>
            <system-layout>
               <system-margins>
                  <left-margin>85</left-margin>
                  <right-margin>0</right-margin>
               </system-margins>
               <top-system-distance>178</top-system-distance>
            </system-layout>
            <measure-numbering>system</measure-numbering>
         </print>
         <attributes>
            <divisions>6</divisions>
            <key>
               <fifths>-5</fifths>
               <mode>major</mode>
            </key>
            <time>
               <beats>3</beats>
               <beat-type>4</beat-type>
            </time>
            <clef>
               <sign>G</sign>
               <line>2</line>
            </clef>
         </attributes>
         <direction placement="above">
            <direction-type>
               <words default-y="62"
                      font-family="Plantin MT Std"
                      font-weight="bold"
                      relative-x="28">Andantino quasi Allegretto</words>
            </direction-type>
            <direction-type>
               <metronome font-family="Engraver Text T" font-size="7.7" font-weight="bold">
                  <beat-unit>quarter</beat-unit>
                  <per-minute>78</per-minute>
               </metronome>
            </direction-type>
            <sound tempo="78"/>
         </direction>
         <note>
            <rest measure="yes"/>
            <duration>18</duration>
            <voice>1</voice>
         </note>
      </measure>
      <!--=======================================================-->
      <measure number="2" width="520">
         <note default-x="13">
            <rest/>
            <duration>12</duration>
            <voice>1</voice>
            <type>half</type>
         </note>
         <direction placement="above">
            <direction-type>
               <dynamics default-y="30" halign="left" relative-x="-6">
                  <p/>
               </dynamics>
            </direction-type>
         </direction>
         <note default-x="351">
            <pitch>
               <step>F</step>
               <octave>4</octave>
            </pitch>
            <duration>6</duration>
            <voice>1</voice>
            <type>quarter</type>
        
            <lyric default-y="-80" number="1">
               <syllabic>begin</syllabic>
               <text>Vo</text>
            </lyric>
         </note>
      </measure>
      <!--=======================================================-->
      <measure number="3" width="395">
         <print new-system="yes">
            <system-layout>
               <system-distance>222</system-distance>
            </system-layout>
         </print>
         <note default-x="119">
            <pitch>
               <step>C</step>
               <octave>5</octave>
            </pitch>
            <duration>6</duration>
            <voice>1</voice>
            <type>quarter</type>
        
            <lyric default-y="-80" number="1">
               <syllabic>end</syllabic>
               <text>tre</text>
               <elision> </elision>
               <syllabic>begin</syllabic>
               <text>â</text>
            </lyric>
         </note>
         <note default-x="210">
            <pitch>
               <step>D</step>
               <alter>-1</alter>
               <octave>5</octave>
            </pitch>
            <duration>3</duration>
            <voice>1</voice>
            <type>eighth</type>
        
            <lyric default-y="-80" number="1">
               <syllabic>end</syllabic>
               <text>me</text>
               <elision> </elision>
               <syllabic>single</syllabic>
               <text>est</text>
            </lyric>
         </note>
         <note default-x="256">
            <pitch>
               <step>B</step>
               <alter>-1</alter>
               <octave>4</octave>
            </pitch>
            <duration>3</duration>
            <voice>1</voice>
            <type>eighth</type>
        
            <lyric default-y="-80" number="1">
               <syllabic>single</syllabic>
               <text>un</text>
            </lyric>
         </note>
         <note default-x="301">
            <pitch>
               <step>C</step>
               <octave>5</octave>
            </pitch>
            <duration>3</duration>
            <voice>1</voice>
            <type>eighth</type>
        
            <lyric default-y="-80" number="1">
               <syllabic>begin</syllabic>
               <text>pa</text>
            </lyric>
         </note>
         <note default-x="347">
            <pitch>
               <step>A</step>
               <octave>4</octave>
            </pitch>
            <duration>3</duration>
            <voice>1</voice>
            <type>eighth</type>
            <accidental>natural</accidental>
        
            <lyric default-y="-80" number="1">
               <syllabic>middle</syllabic>
               <text>y</text>
            </lyric>
         </note>
      </measure>
      <!--=======================================================-->
      <measure number="4" width="304">
         <note default-x="25">
            <pitch>
               <step>A</step>
               <octave>4</octave>
            </pitch>
            <duration>6</duration>
            <voice>1</voice>
            <type>quarter</type>
            <accidental>natural</accidental>
        
            <lyric default-y="-80" number="1">
               <syllabic>middle</syllabic>
               <text>sa</text>
            </lyric>
         </note>
         <note default-x="116">
            <pitch>
               <step>F</step>
               <octave>4</octave>
            </pitch>
            <duration>3</duration>
            <voice>1</voice>
            <type>eighth</type>
        
            <lyric default-y="-80" number="1">
               <syllabic>end</syllabic>
               <text>ge</text>
            </lyric>
         </note>
         <note default-x="161">
            <pitch>
               <step>G</step>
               <octave>4</octave>
            </pitch>
            <duration>3</duration>
            <voice>1</voice>
            <type>eighth</type>
            <accidental>natural</accidental>
        
            <lyric default-y="-80" number="1">
               <syllabic>begin</syllabic>
               <text>choi</text>
            </lyric>
         </note>
         <note default-x="208">
            <pitch>
               <step>A</step>
               <octave>4</octave>
            </pitch>
            <duration>6</duration>
            <voice>1</voice>
            <type>quarter</type>
        
            <lyric default-y="-80" number="1">
               <syllabic>end</syllabic>
               <text>si,</text>
            </lyric>
         </note>
      </measure>
      <!--=======================================================-->
      <measure number="5" width="291">
         <note default-x="14">
            <rest/>
            <duration>3</duration>
            <voice>1</voice>
            <type>eighth</type>
         </note>
         <note default-x="60">
            <pitch>
               <step>C</step>
               <octave>5</octave>
            </pitch>
            <duration>3</duration>
            <voice>1</voice>
            <type>eighth</type>
        
            <lyric default-y="-80" number="1">
               <syllabic>single</syllabic>
               <text>Que</text>
            </lyric>
         </note>
         <note default-x="106">
            <pitch>
               <step>D</step>
               <alter>-1</alter>
               <octave>5</octave>
            </pitch>
            <duration>3</duration>
            <voice>1</voice>
            <type>eighth</type>
        
            <beam number="1">begin</beam>
            <lyric default-y="-80" number="1">
               <syllabic>single</syllabic>
               <text>vont</text>
            </lyric>
         </note>
         <note default-x="152">
            <pitch>
               <step>B</step>
               <alter>-1</alter>
               <octave>4</octave>
            </pitch>
            <duration>3</duration>
            <voice>1</voice>
            <type>eighth</type>
        
            <beam number="1">end</beam>
            <lyric default-y="-80" number="1">
               <syllabic>begin</syllabic>
               <text>char</text>
            </lyric>
         </note>
         <note default-x="197">
            <pitch>
               <step>C</step>
               <octave>5</octave>
            </pitch>
            <duration>6</duration>
            <voice>1</voice>
            <type>quarter</type>
        
            <lyric default-y="-80" number="1">
               <syllabic>end</syllabic>
               <text>mant</text>
            </lyric>
         </note>
      </measure>
      <!--=======================================================-->
      <measure number="6" width="316">
         <note default-x="25">
            <pitch>
               <step>A</step>
               <octave>4</octave>
            </pitch>
            <duration>6</duration>
            <voice>1</voice>
            <type>quarter</type>
            <accidental>natural</accidental>
        
            <lyric default-y="-80" number="1">
               <syllabic>begin</syllabic>
               <text>mas</text>
            </lyric>
         </note>
         <note default-x="118">
            <pitch>
               <step>F</step>
               <octave>4</octave>
            </pitch>
            <duration>6</duration>
            <voice>1</voice>
            <type>quarter</type>
        
            <lyric default-y="-80" number="1">
               <syllabic>end</syllabic>
               <text>ques</text>
            </lyric>
         </note>
         <note default-x="211">
            <pitch>
               <step>F</step>
               <octave>4</octave>
            </pitch>
            <duration>2</duration>
            <voice>1</voice>
            <type>eighth</type>
            <time-modification>
               <actual-notes>3</actual-notes>
               <normal-notes>2</normal-notes>
            </time-modification>
        
            <notations>
               <tuplet bracket="no" number="1" type="start"/>
            </notations>
            <lyric default-y="-80" number="1">
               <syllabic>single</syllabic>
               <text>et</text>
            </lyric>
         </note>
         <note default-x="249">
            <pitch>
               <step>G</step>
               <octave>4</octave>
            </pitch>
            <duration>2</duration>
            <voice>1</voice>
            <type>eighth</type>
            <accidental>natural</accidental>
            <time-modification>
               <actual-notes>3</actual-notes>
               <normal-notes>2</normal-notes>
            </time-modification>
        
            <lyric default-y="-80" number="1">
               <syllabic>begin</syllabic>
               <text>ber</text>
            </lyric>
         </note>
         <note default-x="283">
            <pitch>
               <step>A</step>
               <octave>4</octave>
            </pitch>
            <duration>2</duration>
            <voice>1</voice>
            <type>eighth</type>
            <time-modification>
               <actual-notes>3</actual-notes>
               <normal-notes>2</normal-notes>
            </time-modification>
        
            <notations>
               <tuplet number="1" type="stop"/>
            </notations>
            <lyric default-y="-80" number="1">
               <syllabic>middle</syllabic>
               <text>ga</text>
            </lyric>
         </note>
      </measure>
      <!--=======================================================-->
      <measure number="7" width="535">
         <print new-system="yes">
            <system-layout>
               <system-distance>222</system-distance>
            </system-layout>
         </print>
         <note default-x="119">
            <pitch>
               <step>F</step>
               <octave>4</octave>
            </pitch>
            <duration>6</duration>
            <voice>1</voice>
            <type>quarter</type>
        
            <lyric default-y="-80" number="1">
               <syllabic>middle</syllabic>
               <text>mas</text>
            </lyric>
         </note>
         <note default-x="257">
            <pitch>
               <step>G</step>
               <alter>-1</alter>
               <octave>4</octave>
            </pitch>
            <duration>6</duration>
            <tie type="start"/>
            <voice>1</voice>
            <type>quarter</type>
            <accidental>flat</accidental>
        
            <notations>
               <tied type="start"/>
            </notations>
            <lyric default-y="-80" number="1">
               <syllabic>end</syllabic>
               <text>ques</text>
               <extend type="start"/>
            </lyric>
         </note>
         <note default-x="395">
            <pitch>
               <step>G</step>
               <alter>-1</alter>
               <octave>4</octave>
            </pitch>
            <duration>3</duration>
            <tie type="stop"/>
            <voice>1</voice>
            <type>eighth</type>
        
            <notations>
               <tied type="stop"/>
            </notations>
            <lyric name="verse" number="1">
               <extend type="stop"/>
            </lyric>
         </note>
         <note default-x="464">
            <rest/>
            <duration>3</duration>
            <voice>1</voice>
            <type>eighth</type>
         </note>
      </measure>
      <!--=======================================================-->
      <measure number="8" width="342">
         <note default-x="13">
            <rest/>
            <duration>6</duration>
            <voice>1</voice>
            <type>quarter</type>
         </note>
         <note default-x="119">
            <pitch>
               <step>B</step>
               <alter>-1</alter>
               <octave>4</octave>
            </pitch>
            <duration>6</duration>
            <voice>1</voice>
            <type>quarter</type>
        
            <lyric default-y="-80" number="1">
               <syllabic>begin</syllabic>
               <text>Jou</text>
            </lyric>
         </note>
         <note default-x="224">
            <pitch>
               <step>E</step>
               <alter>-1</alter>
               <octave>5</octave>
            </pitch>
            <duration>3</duration>
            <voice>1</voice>
            <type>eighth</type>
        
            <lyric default-y="-80" number="1">
               <syllabic>end</syllabic>
               <text>ant</text>
            </lyric>
         </note>
         <note default-x="282">
            <pitch>
               <step>C</step>
               <octave>5</octave>
            </pitch>
            <duration>3</duration>
            <voice>1</voice>
            <type>eighth</type>
        
            <lyric default-y="-80" number="1">
               <syllabic>single</syllabic>
               <text>du</text>
            </lyric>
         </note>
      </measure>
      <!--=======================================================-->
      <measure number="9" width="430">
         <note default-x="14">
            <pitch>
               <step>B</step>
               <alter>-1</alter>
               <octave>4</octave>
            </pitch>
            <duration>12</duration>
            <voice>1</voice>
            <type>half</type>
        
            <lyric default-y="-80" number="1">
               <syllabic>single</syllabic>
               <text>luth</text>
            </lyric>
         </note>
         <note default-x="284">
            <pitch>
               <step>G</step>
               <alter>-1</alter>
               <octave>4</octave>
            </pitch>
            <duration>3</duration>
            <voice>1</voice>
            <type>eighth</type>
        
            <lyric default-y="-80" number="1">
               <syllabic>single</syllabic>
               <text>et</text>
            </lyric>
         </note>
         <note default-x="352">
            <pitch>
               <step>A</step>
               <alter>-1</alter>
               <octave>4</octave>
            </pitch>
            <duration>3</duration>
            <voice>1</voice>
            <type>eighth</type>
        
            <lyric default-y="-80" number="1">
               <syllabic>begin</syllabic>
               <text>dan</text>
            </lyric>
         </note>
         <barline location="right">
            <bar-style>light-heavy</bar-style>
         </barline>
      </measure>
  </part>
  <!--=========================================================-->
  <part id="P2">
      <measure number="1" width="726">
         <print>
            <staff-layout number="1">
               <staff-distance>92</staff-distance>
            </staff-layout>
            <measure-numbering>none</measure-numbering>
         </print>
         <attributes>
            <divisions>4</divisions>
            <key>
               <fifths>-5</fifths>
               <mode>major</mode>
            </key>
            <time>
               <beats>3</beats>
               <beat-type>4</beat-type>
            </time>
            <staves>2</staves>
            <clef number="1">
               <sign>G</sign>
               <line>2</line>
            </clef>
            <clef number="2">
               <sign>F</sign>
               <line>4</line>
            </clef>
         </attributes>
         <note default-x="150">
            <pitch>
               <step>B</step>
               <alter>-1</alter>
               <octave>4</octave>
            </pitch>
            <duration>2</duration>
            <voice>1</voice>
            <type>eighth</type>
        
            <staff>1</staff>
            <beam number="1">begin</beam>
            <notations>
               <slur number="1" placement="above" type="start"/>
            </notations>
         </note>
         <note default-x="246">
            <pitch>
               <step>C</step>
               <octave>5</octave>
            </pitch>
            <duration>2</duration>
            <voice>1</voice>
            <type>eighth</type>
        
            <staff>1</staff>
            <beam number="1">end</beam>
         </note>
         <note default-x="342">
            <pitch>
               <step>D</step>
               <alter>-1</alter>
               <octave>5</octave>
            </pitch>
            <duration>2</duration>
            <voice>1</voice>
            <type>eighth</type>
        
            <staff>1</staff>
            <beam number="1">begin</beam>
         </note>
         <note default-x="438">
            <pitch>
               <step>A</step>
               <alter>-1</alter>
               <octave>4</octave>
            </pitch>
            <duration>2</duration>
            <voice>1</voice>
            <type>eighth</type>
        
            <staff>1</staff>
            <beam number="1">end</beam>
         </note>
         <note default-x="533">
            <pitch>
               <step>B</step>
               <alter>-1</alter>
               <octave>4</octave>
            </pitch>
            <duration>1</duration>
            <voice>1</voice>
            <type>16th</type>
        
            <staff>1</staff>
            <beam number="1">begin</beam>
            <beam number="2">begin</beam>
         </note>
         <note default-x="581">
            <pitch>
               <step>A</step>
               <alter>-1</alter>
               <octave>4</octave>
            </pitch>
            <duration>1</duration>
            <voice>1</voice>
            <type>16th</type>
        
            <staff>1</staff>
            <beam number="1">continue</beam>
            <beam number="2">end</beam>
         </note>
         <note default-x="629">
            <pitch>
               <step>G</step>
               <alter>-1</alter>
               <octave>4</octave>
            </pitch>
            <duration>2</duration>
            <voice>1</voice>
            <type>eighth</type>
        
            <staff>1</staff>
            <beam number="1">end</beam>
         </note>
         <backup>
            <duration>12</duration>
         </backup>
         <note default-x="150">
            <rest/>
            <duration>1</duration>
            <voice>2</voice>
            <type>16th</type>
            <staff>2</staff>
         </note>
         <note default-x="198">
            <pitch>
               <step>E</step>
               <alter>-1</alter>
               <octave>3</octave>
            </pitch>
            <duration>1</duration>
            <voice>2</voice>
            <type>16th</type>
        
            <staff>2</staff>
            <beam number="1">begin</beam>
            <beam number="2">begin</beam>
            <notations>
               <slur number="2" placement="above" type="start"/>
            </notations>
         </note>
         <note default-x="246">
            <pitch>
               <step>B</step>
               <alter>-1</alter>
               <octave>3</octave>
            </pitch>
            <duration>1</duration>
            <voice>2</voice>
            <type>16th</type>
        
            <staff>2</staff>
            <beam number="1">continue</beam>
            <beam number="2">continue</beam>
         </note>
         <note default-x="294">
            <pitch>
               <step>G</step>
               <alter>-1</alter>
               <octave>4</octave>
            </pitch>
            <duration>1</duration>
            <voice>2</voice>
            <type>16th</type>
            <accidental>flat</accidental>
        
            <staff>2</staff>
            <beam number="1">end</beam>
            <beam number="2">end</beam>
            <notations>
               <slur number="2" type="stop"/>
            </notations>
         </note>
         <note default-x="342">
            <rest/>
            <duration>1</duration>
            <voice>2</voice>
            <type>16th</type>
            <staff>2</staff>
         </note>
         <note default-x="389">
            <pitch>
               <step>F</step>
               <octave>3</octave>
            </pitch>
            <duration>1</duration>
            <voice>2</voice>
            <type>16th</type>
        
            <staff>2</staff>
            <beam number="1">begin</beam>
            <beam number="2">begin</beam>
            <notations>
               <slur number="2" placement="above" type="start"/>
            </notations>
         </note>
         <note default-x="438">
            <pitch>
               <step>D</step>
               <alter>-1</alter>
               <octave>4</octave>
            </pitch>
            <duration>1</duration>
            <voice>2</voice>
            <type>16th</type>
            <accidental>flat</accidental>
        
            <staff>2</staff>
            <beam number="1">continue</beam>
            <beam number="2">continue</beam>
         </note>
         <note default-x="485">
            <pitch>
               <step>F</step>
               <octave>4</octave>
            </pitch>
            <duration>1</duration>
            <voice>2</voice>
            <type>16th</type>
        
            <staff>2</staff>
            <beam number="1">end</beam>
            <beam number="2">end</beam>
            <notations>
               <slur number="2" type="stop"/>
            </notations>
         </note>
         <note default-x="533">
            <rest/>
            <duration>1</duration>
            <voice>2</voice>
            <type>16th</type>
            <staff>2</staff>
         </note>
         <note default-x="581">
            <pitch>
               <step>G</step>
               <alter>-1</alter>
               <octave>3</octave>
            </pitch>
            <duration>1</duration>
            <voice>2</voice>
            <type>16th</type>
            <accidental>flat</accidental>
        
            <staff>2</staff>
            <beam number="1">begin</beam>
            <beam number="2">begin</beam>
            <notations>
               <slur number="2" placement="above" type="start"/>
            </notations>
         </note>
         <note default-x="629">
            <pitch>
               <step>B</step>
               <alter>-1</alter>
               <octave>3</octave>
            </pitch>
            <duration>1</duration>
            <voice>2</voice>
            <type>16th</type>
        
            <staff>2</staff>
            <beam number="1">continue</beam>
            <beam number="2">continue</beam>
         </note>
         <note default-x="676">
            <pitch>
               <step>D</step>
               <alter>-1</alter>
               <octave>4</octave>
            </pitch>
            <duration>1</duration>
            <voice>2</voice>
            <type>16th</type>
        
            <staff>2</staff>
            <beam number="1">end</beam>
            <beam number="2">end</beam>
            <notations>
               <slur number="2" type="stop"/>
            </notations>
         </note>
      </measure>
      <!--=======================================================-->
      <measure number="2" width="520">
         <note default-x="15">
            <pitch>
               <step>F</step>
               <octave>4</octave>
            </pitch>
            <duration>4</duration>
            <voice>1</voice>
            <type>quarter</type>
        
            <staff>1</staff>
         </note>
         <note default-x="183">
            <pitch>
               <step>G</step>
               <alter>-1</alter>
               <octave>4</octave>
            </pitch>
            <duration>1</duration>
            <voice>1</voice>
            <type>16th</type>
        
            <staff>1</staff>
            <beam number="1">begin</beam>
            <beam number="2">begin</beam>
         </note>
         <note default-x="225">
            <pitch>
               <step>F</step>
               <octave>4</octave>
            </pitch>
            <duration>1</duration>
            <voice>1</voice>
            <type>16th</type>
        
            <staff>1</staff>
            <beam number="1">continue</beam>
            <beam number="2">end</beam>
         </note>
         <note default-x="266">
            <pitch>
               <step>E</step>
               <alter>-1</alter>
               <octave>4</octave>
            </pitch>
            <duration>2</duration>
            <voice>1</voice>
            <type>eighth</type>
        
            <staff>1</staff>
            <beam number="1">end</beam>
         </note>
         <note default-x="351">
            <pitch>
               <step>F</step>
               <octave>4</octave>
            </pitch>
            <duration>4</duration>
            <voice>1</voice>
            <type>quarter</type>
        
            <staff>1</staff>
            <notations>
               <slur number="1" type="stop"/>
            </notations>
         </note>
         <backup>
            <duration>12</duration>
         </backup>
         <note default-x="15">
            <rest/>
            <duration>1</duration>
            <voice>2</voice>
            <type>16th</type>
            <staff>2</staff>
         </note>
         <note default-x="57">
            <pitch>
               <step>D</step>
               <alter>-1</alter>
               <octave>3</octave>
            </pitch>
            <duration>1</duration>
            <voice>2</voice>
            <type>16th</type>
        
            <staff>2</staff>
            <beam number="1">begin</beam>
            <beam number="2">begin</beam>
            <notations>
               <slur number="1" placement="above" type="start"/>
            </notations>
         </note>
         <note default-x="99">
            <pitch>
               <step>A</step>
               <alter>-1</alter>
               <octave>3</octave>
            </pitch>
            <duration>1</duration>
            <voice>2</voice>
            <type>16th</type>
        
            <staff>2</staff>
            <beam number="1">continue</beam>
            <beam number="2">continue</beam>
         </note>
         <note default-x="141">
            <pitch>
               <step>D</step>
               <alter>-1</alter>
               <octave>4</octave>
            </pitch>
            <duration>1</duration>
            <voice>2</voice>
            <type>16th</type>
        
            <staff>2</staff>
            <beam number="1">end</beam>
            <beam number="2">end</beam>
            <notations>
               <slur number="1" type="stop"/>
            </notations>
         </note>
         <note default-x="183">
            <rest/>
            <duration>1</duration>
            <voice>2</voice>
            <type>16th</type>
            <staff>2</staff>
         </note>
         <note default-x="225">
            <pitch>
               <step>E</step>
               <alter>-1</alter>
               <octave>3</octave>
            </pitch>
            <duration>1</duration>
            <voice>2</voice>
            <type>16th</type>
        
            <staff>2</staff>
            <beam number="1">begin</beam>
            <beam number="2">begin</beam>
            <notations>
               <slur number="1" placement="above" type="start"/>
            </notations>
         </note>
         <note default-x="266">
            <pitch>
               <step>B</step>
               <alter>-1</alter>
               <octave>3</octave>
            </pitch>
            <duration>1</duration>
            <voice>2</voice>
            <type>16th</type>
        
            <staff>2</staff>
            <beam number="1">continue</beam>
            <beam number="2">continue</beam>
         </note>
         <note default-x="309">
            <pitch>
               <step>C</step>
               <octave>4</octave>
            </pitch>
            <duration>1</duration>
            <voice>2</voice>
            <type>16th</type>
        
            <staff>2</staff>
            <beam number="1">end</beam>
            <beam number="2">end</beam>
            <notations>
               <slur number="1" type="stop"/>
            </notations>
         </note>
         <note default-x="351">
            <rest/>
            <duration>1</duration>
            <voice>2</voice>
            <type>16th</type>
            <staff>2</staff>
         </note>
         <note default-x="392">
            <pitch>
               <step>B</step>
               <alter>-1</alter>
               <octave>2</octave>
            </pitch>
            <duration>1</duration>
            <voice>2</voice>
            <type>16th</type>
        
            <staff>2</staff>
            <beam number="1">begin</beam>
            <beam number="2">begin</beam>
            <notations>
               <slur number="1" placement="above" type="start"/>
            </notations>
         </note>
         <note default-x="435">
            <pitch>
               <step>F</step>
               <octave>3</octave>
            </pitch>
            <duration>1</duration>
            <voice>2</voice>
            <type>16th</type>
        
            <staff>2</staff>
            <beam number="1">continue</beam>
            <beam number="2">continue</beam>
         </note>
         <note default-x="476">
            <pitch>
               <step>D</step>
               <alter>-1</alter>
               <octave>4</octave>
            </pitch>
            <duration>1</duration>
            <voice>2</voice>
            <type>16th</type>
        
            <staff>2</staff>
            <beam number="1">end</beam>
            <beam number="2">end</beam>
            <notations>
               <slur number="1" type="stop"/>
            </notations>
         </note>
      </measure>
      <!--=======================================================-->
      <measure number="3" width="395">
         <print new-system="yes">
            <staff-layout number="1">
               <staff-distance>92</staff-distance>
            </staff-layout>
         </print>
         <note default-x="119">
            <pitch>
               <step>F</step>
               <octave>4</octave>
            </pitch>
            <duration>2</duration>
            <voice>1</voice>
            <type>eighth</type>
        
            <staff>1</staff>
            <beam number="1">begin</beam>
         </note>
         <note default-x="165">
            <pitch>
               <step>C</step>
               <octave>4</octave>
            </pitch>
            <duration>1</duration>
            <voice>1</voice>
            <type>16th</type>
        
            <staff>1</staff>
            <beam number="1">continue</beam>
            <beam number="2">begin</beam>
         </note>
         <note default-x="165">
            <chord/>
            <pitch>
               <step>A</step>
               <octave>4</octave>
            </pitch>
            <duration>1</duration>
            <voice>1</voice>
            <type>16th</type>
            <accidental>natural</accidental>
        
            <staff>1</staff>
         </note>
         <note default-x="187">
            <pitch>
               <step>F</step>
               <octave>4</octave>
            </pitch>
            <duration>1</duration>
            <voice>1</voice>
            <type>16th</type>
        
            <staff>1</staff>
            <beam number="1">end</beam>
            <beam number="2">end</beam>
         </note>
         <note default-x="210">
            <pitch>
               <step>F</step>
               <octave>4</octave>
            </pitch>
            <duration>2</duration>
            <voice>1</voice>
            <type>eighth</type>
        
            <staff>1</staff>
            <beam number="1">begin</beam>
         </note>
         <note default-x="256">
            <pitch>
               <step>G</step>
               <octave>4</octave>
            </pitch>
            <duration>2</duration>
            <voice>1</voice>
            <type>eighth</type>
            <accidental>natural</accidental>
        
            <staff>1</staff>
            <beam number="1">end</beam>
         </note>
         <note default-x="256">
            <chord/>
            <pitch>
               <step>B</step>
               <alter>-1</alter>
               <octave>4</octave>
            </pitch>
            <duration>2</duration>
            <voice>1</voice>
            <type>eighth</type>
        
            <staff>1</staff>
         </note>
         <note default-x="301">
            <pitch>
               <step>C</step>
               <octave>4</octave>
            </pitch>
            <duration>2</duration>
            <voice>1</voice>
            <type>eighth</type>
        
            <staff>1</staff>
            <beam number="1">begin</beam>
         </note>
         <note default-x="301">
            <chord/>
            <pitch>
               <step>A</step>
               <octave>4</octave>
            </pitch>
            <duration>2</duration>
            <voice>1</voice>
            <type>eighth</type>
        
            <staff>1</staff>
         </note>
         <note default-x="347">
            <pitch>
               <step>F</step>
               <octave>4</octave>
            </pitch>
            <duration>2</duration>
            <voice>1</voice>
            <type>eighth</type>
        
            <staff>1</staff>
            <beam number="1">end</beam>
         </note>
         <backup>
            <duration>12</duration>
         </backup>
         <direction placement="above">
            <direction-type>
               <dynamics default-y="30" halign="left" relative-x="-6">
                  <pp/>
               </dynamics>
            </direction-type>
            <staff>2</staff>
         </direction>
         <note default-x="119">
            <rest/>
            <duration>1</duration>
            <voice>2</voice>
            <type>16th</type>
            <staff>2</staff>
         </note>
         <note default-x="142">
            <pitch>
               <step>F</step>
               <octave>2</octave>
            </pitch>
            <duration>1</duration>
            <voice>2</voice>
            <type>16th</type>
        
            <staff>2</staff>
            <beam number="1">begin</beam>
            <beam number="2">begin</beam>
            <notations>
               <slur number="1" placement="below" type="start"/>
            </notations>
         </note>
         <note default-x="165">
            <pitch>
               <step>C</step>
               <octave>3</octave>
            </pitch>
            <duration>1</duration>
            <voice>2</voice>
            <type>16th</type>
        
            <staff>2</staff>
            <beam number="1">continue</beam>
            <beam number="2">continue</beam>
         </note>
         <note default-x="187">
            <pitch>
               <step>A</step>
               <octave>3</octave>
            </pitch>
            <duration>1</duration>
            <voice>2</voice>
            <type>16th</type>
            <accidental>natural</accidental>
        
            <staff>2</staff>
            <beam number="1">end</beam>
            <beam number="2">end</beam>
            <notations>
               <slur number="1" type="stop"/>
            </notations>
         </note>
         <note default-x="210">
            <rest/>
            <duration>1</duration>
            <voice>2</voice>
            <type>16th</type>
            <staff>2</staff>
         </note>
         <note default-x="233">
            <pitch>
               <step>B</step>
               <alter>-1</alter>
               <octave>2</octave>
            </pitch>
            <duration>1</duration>
            <voice>2</voice>
            <type>16th</type>
        
            <staff>2</staff>
            <beam number="1">begin</beam>
            <beam number="2">begin</beam>
            <notations>
               <slur number="1" placement="above" type="start"/>
            </notations>
         </note>
         <note default-x="256">
            <pitch>
               <step>F</step>
               <octave>3</octave>
            </pitch>
            <duration>1</duration>
            <voice>2</voice>
            <type>16th</type>
        
            <staff>2</staff>
            <beam number="1">continue</beam>
            <beam number="2">continue</beam>
         </note>
         <note default-x="279">
            <pitch>
               <step>D</step>
               <alter>-1</alter>
               <octave>4</octave>
            </pitch>
            <duration>1</duration>
            <voice>2</voice>
            <type>16th</type>
        
            <staff>2</staff>
            <beam number="1">end</beam>
            <beam number="2">end</beam>
            <notations>
               <slur number="1" type="stop"/>
            </notations>
         </note>
         <note default-x="301">
            <rest/>
            <duration>1</duration>
            <voice>2</voice>
            <type>16th</type>
            <staff>2</staff>
         </note>
         <note default-x="324">
            <pitch>
               <step>F</step>
               <octave>2</octave>
            </pitch>
            <duration>1</duration>
            <voice>2</voice>
            <type>16th</type>
        
            <staff>2</staff>
            <beam number="1">begin</beam>
            <beam number="2">begin</beam>
            <notations>
               <slur number="1" placement="below" type="start"/>
            </notations>
         </note>
         <note default-x="347">
            <pitch>
               <step>C</step>
               <octave>3</octave>
            </pitch>
            <duration>1</duration>
            <voice>2</voice>
            <type>16th</type>
        
            <staff>2</staff>
            <beam number="1">continue</beam>
            <beam number="2">continue</beam>
         </note>
         <note default-x="370">
            <pitch>
               <step>A</step>
               <octave>3</octave>
            </pitch>
            <duration>1</duration>
            <voice>2</voice>
            <type>16th</type>
        
            <staff>2</staff>
            <beam number="1">end</beam>
            <beam number="2">end</beam>
            <notations>
               <slur number="1" type="stop"/>
            </notations>
         </note>
      </measure>
      <!--=======================================================-->
      <measure number="4" width="304">
         <note default-x="25">
            <pitch>
               <step>F</step>
               <octave>4</octave>
            </pitch>
            <duration>2</duration>
            <voice>1</voice>
            <type>eighth</type>
        
            <staff>1</staff>
            <beam number="1">begin</beam>
         </note>
         <note default-x="68">
            <pitch>
               <step>A</step>
               <octave>3</octave>
            </pitch>
            <duration>1</duration>
            <voice>1</voice>
            <type>16th</type>
            <accidental>natural</accidental>
        
            <staff>1</staff>
            <beam number="1">continue</beam>
            <beam number="2">begin</beam>
         </note>
         <note default-x="68">
            <chord/>
            <pitch>
               <step>A</step>
               <octave>4</octave>
            </pitch>
            <duration>1</duration>
            <voice>1</voice>
            <type>16th</type>
            <accidental>natural</accidental>
        
            <staff>1</staff>
         </note>
         <note default-x="92">
            <pitch>
               <step>F</step>
               <octave>4</octave>
            </pitch>
            <duration>1</duration>
            <voice>1</voice>
            <type>16th</type>
        
            <staff>1</staff>
            <beam number="1">end</beam>
            <beam number="2">end</beam>
         </note>
         <note default-x="116">
            <pitch>
               <step>F</step>
               <octave>4</octave>
            </pitch>
            <duration>2</duration>
            <voice>1</voice>
            <type>eighth</type>
        
            <staff>1</staff>
            <beam number="1">begin</beam>
         </note>
         <note default-x="161">
            <pitch>
               <step>B</step>
               <alter>-1</alter>
               <octave>3</octave>
            </pitch>
            <duration>2</duration>
            <voice>1</voice>
            <type>eighth</type>
        
            <staff>1</staff>
            <beam number="1">end</beam>
         </note>
         <note default-x="161">
            <chord/>
            <pitch>
               <step>G</step>
               <octave>4</octave>
            </pitch>
            <duration>2</duration>
            <voice>1</voice>
            <type>eighth</type>
            <accidental>natural</accidental>
        
            <staff>1</staff>
         </note>
         <note default-x="208">
            <pitch>
               <step>C</step>
               <octave>4</octave>
            </pitch>
            <duration>2</duration>
            <voice>1</voice>
            <type>eighth</type>
        
            <staff>1</staff>
            <beam number="1">begin</beam>
         </note>
         <note default-x="208">
            <chord/>
            <pitch>
               <step>A</step>
               <octave>4</octave>
            </pitch>
            <duration>2</duration>
            <voice>1</voice>
            <type>eighth</type>
        
            <staff>1</staff>
         </note>
         <note default-x="252">
            <pitch>
               <step>F</step>
               <octave>4</octave>
            </pitch>
            <duration>2</duration>
            <voice>1</voice>
            <type>eighth</type>
        
            <staff>1</staff>
            <beam number="1">end</beam>
         </note>
         <backup>
            <duration>12</duration>
         </backup>
         <note default-x="24">
            <rest/>
            <duration>1</duration>
            <voice>2</voice>
            <type>16th</type>
            <staff>2</staff>
         </note>
         <note default-x="47">
            <pitch>
               <step>C</step>
               <octave>3</octave>
            </pitch>
            <duration>1</duration>
            <voice>2</voice>
            <type>16th</type>
        
            <staff>2</staff>
            <beam number="1">begin</beam>
            <beam number="2">begin</beam>
            <notations>
               <slur number="1" placement="above" type="start"/>
            </notations>
         </note>
         <note default-x="68">
            <pitch>
               <step>F</step>
               <octave>3</octave>
            </pitch>
            <duration>1</duration>
            <voice>2</voice>
            <type>16th</type>
        
            <staff>2</staff>
            <beam number="1">continue</beam>
            <beam number="2">continue</beam>
         </note>
         <note default-x="92">
            <pitch>
               <step>C</step>
               <octave>4</octave>
            </pitch>
            <duration>1</duration>
            <voice>2</voice>
            <type>16th</type>
        
            <staff>2</staff>
            <beam number="1">end</beam>
            <beam number="2">end</beam>
            <notations>
               <slur number="1" type="stop"/>
            </notations>
         </note>
         <note default-x="116">
            <rest/>
            <duration>1</duration>
            <voice>2</voice>
            <type>16th</type>
            <staff>2</staff>
         </note>
         <note default-x="138">
            <pitch>
               <step>B</step>
               <alter>-1</alter>
               <octave>2</octave>
            </pitch>
            <duration>1</duration>
            <voice>2</voice>
            <type>16th</type>
        
            <staff>2</staff>
            <beam number="1">begin</beam>
            <beam number="2">begin</beam>
            <notations>
               <slur number="1" placement="above" type="start"/>
            </notations>
         </note>
         <note default-x="161">
            <pitch>
               <step>F</step>
               <octave>3</octave>
            </pitch>
            <duration>1</duration>
            <voice>2</voice>
            <type>16th</type>
        
            <staff>2</staff>
            <beam number="1">continue</beam>
            <beam number="2">continue</beam>
         </note>
         <note default-x="185">
            <pitch>
               <step>D</step>
               <alter>-1</alter>
               <octave>4</octave>
            </pitch>
            <duration>1</duration>
            <voice>2</voice>
            <type>16th</type>
        
            <staff>2</staff>
            <beam number="1">end</beam>
            <beam number="2">end</beam>
            <notations>
               <slur number="1" type="stop"/>
            </notations>
         </note>
         <note default-x="208">
            <rest/>
            <duration>1</duration>
            <voice>2</voice>
            <type>16th</type>
            <staff>2</staff>
         </note>
         <note default-x="230">
            <pitch>
               <step>F</step>
               <octave>2</octave>
            </pitch>
            <duration>1</duration>
            <voice>2</voice>
            <type>16th</type>
        
            <staff>2</staff>
            <beam number="1">begin</beam>
            <beam number="2">begin</beam>
            <notations>
               <slur number="1" placement="below" type="start"/>
            </notations>
         </note>
         <note default-x="252">
            <pitch>
               <step>C</step>
               <octave>3</octave>
            </pitch>
            <duration>1</duration>
            <voice>2</voice>
            <type>16th</type>
        
            <staff>2</staff>
            <beam number="1">continue</beam>
            <beam number="2">continue</beam>
         </note>
         <note default-x="281">
            <pitch>
               <step>A</step>
               <octave>3</octave>
            </pitch>
            <duration>1</duration>
            <voice>2</voice>
            <type>16th</type>
            <accidental>natural</accidental>
        
            <staff>2</staff>
            <beam number="1">end</beam>
            <beam number="2">end</beam>
            <notations>
               <slur number="1" type="stop"/>
            </notations>
         </note>
      </measure>
      <!--=======================================================-->
      <measure number="5" width="291">
         <note default-x="14">
            <pitch>
               <step>F</step>
               <octave>4</octave>
            </pitch>
            <duration>2</duration>
            <voice>1</voice>
            <type>eighth</type>
        
            <staff>1</staff>
            <beam number="1">begin</beam>
         </note>
         <note default-x="60">
            <pitch>
               <step>C</step>
               <octave>4</octave>
            </pitch>
            <duration>1</duration>
            <voice>1</voice>
            <type>16th</type>
        
            <staff>1</staff>
            <beam number="1">continue</beam>
            <beam number="2">begin</beam>
         </note>
         <note default-x="60">
            <chord/>
            <pitch>
               <step>A</step>
               <octave>4</octave>
            </pitch>
            <duration>1</duration>
            <voice>1</voice>
            <type>16th</type>
            <accidental>natural</accidental>
        
            <staff>1</staff>
         </note>
         <note default-x="83">
            <pitch>
               <step>F</step>
               <octave>4</octave>
            </pitch>
            <duration>1</duration>
            <voice>1</voice>
            <type>16th</type>
        
            <staff>1</staff>
            <beam number="1">end</beam>
            <beam number="2">end</beam>
         </note>
         <note default-x="106">
            <pitch>
               <step>F</step>
               <octave>4</octave>
            </pitch>
            <duration>2</duration>
            <voice>1</voice>
            <type>eighth</type>
        
            <staff>1</staff>
            <beam number="1">begin</beam>
         </note>
         <note default-x="152">
            <pitch>
               <step>G</step>
               <octave>4</octave>
            </pitch>
            <duration>2</duration>
            <voice>1</voice>
            <type>eighth</type>
            <accidental>natural</accidental>
        
            <staff>1</staff>
            <beam number="1">end</beam>
         </note>
         <note default-x="152">
            <chord/>
            <pitch>
               <step>B</step>
               <alter>-1</alter>
               <octave>4</octave>
            </pitch>
            <duration>2</duration>
            <voice>1</voice>
            <type>eighth</type>
        
            <staff>1</staff>
         </note>
         <note default-x="197">
            <pitch>
               <step>C</step>
               <octave>4</octave>
            </pitch>
            <duration>2</duration>
            <voice>1</voice>
            <type>eighth</type>
        
            <staff>1</staff>
            <beam number="1">begin</beam>
         </note>
         <note default-x="197">
            <chord/>
            <pitch>
               <step>A</step>
               <octave>4</octave>
            </pitch>
            <duration>2</duration>
            <voice>1</voice>
            <type>eighth</type>
        
            <staff>1</staff>
         </note>
         <note default-x="244">
            <pitch>
               <step>F</step>
               <octave>4</octave>
            </pitch>
            <duration>2</duration>
            <voice>1</voice>
            <type>eighth</type>
        
            <staff>1</staff>
            <beam number="1">end</beam>
         </note>
         <backup>
            <duration>12</duration>
         </backup>
         <note default-x="14">
            <rest/>
            <duration>1</duration>
            <voice>2</voice>
            <type>16th</type>
            <staff>2</staff>
         </note>
         <note default-x="36">
            <pitch>
               <step>F</step>
               <octave>2</octave>
            </pitch>
            <duration>1</duration>
            <voice>2</voice>
            <type>16th</type>
        
            <staff>2</staff>
            <beam number="1">begin</beam>
            <beam number="2">begin</beam>
            <notations>
               <slur number="1" placement="below" type="start"/>
            </notations>
         </note>
         <note default-x="60">
            <pitch>
               <step>C</step>
               <octave>3</octave>
            </pitch>
            <duration>1</duration>
            <voice>2</voice>
            <type>16th</type>
        
            <staff>2</staff>
            <beam number="1">continue</beam>
            <beam number="2">continue</beam>
         </note>
         <note default-x="83">
            <pitch>
               <step>A</step>
               <octave>3</octave>
            </pitch>
            <duration>1</duration>
            <voice>2</voice>
            <type>16th</type>
            <accidental>natural</accidental>
        
            <staff>2</staff>
            <beam number="1">end</beam>
            <beam number="2">end</beam>
            <notations>
               <slur number="1" type="stop"/>
            </notations>
         </note>
         <note default-x="106">
            <rest/>
            <duration>1</duration>
            <voice>2</voice>
            <type>16th</type>
            <staff>2</staff>
         </note>
         <note default-x="128">
            <pitch>
               <step>B</step>
               <alter>-1</alter>
               <octave>2</octave>
            </pitch>
            <duration>1</duration>
            <voice>2</voice>
            <type>16th</type>
        
            <staff>2</staff>
            <beam number="1">begin</beam>
            <beam number="2">begin</beam>
            <notations>
               <slur number="1" placement="above" type="start"/>
            </notations>
         </note>
         <note default-x="152">
            <pitch>
               <step>F</step>
               <octave>3</octave>
            </pitch>
            <duration>1</duration>
            <voice>2</voice>
            <type>16th</type>
        
            <staff>2</staff>
            <beam number="1">continue</beam>
            <beam number="2">continue</beam>
         </note>
         <note default-x="175">
            <pitch>
               <step>D</step>
               <alter>-1</alter>
               <octave>4</octave>
            </pitch>
            <duration>1</duration>
            <voice>2</voice>
            <type>16th</type>
        
            <staff>2</staff>
            <beam number="1">end</beam>
            <beam number="2">end</beam>
            <notations>
               <slur number="1" type="stop"/>
            </notations>
         </note>
         <note default-x="197">
            <rest/>
            <duration>1</duration>
            <voice>2</voice>
            <type>16th</type>
            <staff>2</staff>
         </note>
         <note default-x="220">
            <pitch>
               <step>F</step>
               <octave>2</octave>
            </pitch>
            <duration>1</duration>
            <voice>2</voice>
            <type>16th</type>
        
            <staff>2</staff>
            <beam number="1">begin</beam>
            <beam number="2">begin</beam>
            <notations>
               <slur number="1" placement="below" type="start"/>
            </notations>
         </note>
         <note default-x="244">
            <pitch>
               <step>C</step>
               <octave>3</octave>
            </pitch>
            <duration>1</duration>
            <voice>2</voice>
            <type>16th</type>
        
            <staff>2</staff>
            <beam number="1">continue</beam>
            <beam number="2">continue</beam>
         </note>
         <note default-x="267">
            <pitch>
               <step>A</step>
               <octave>3</octave>
            </pitch>
            <duration>1</duration>
            <voice>2</voice>
            <type>16th</type>
        
            <staff>2</staff>
            <beam number="1">end</beam>
            <beam number="2">end</beam>
            <notations>
               <slur number="1" type="stop"/>
            </notations>
         </note>
      </measure>
      <!--=======================================================-->
      <measure number="6" width="316">
         <note default-x="25">
            <pitch>
               <step>F</step>
               <octave>4</octave>
            </pitch>
            <duration>2</duration>
            <voice>1</voice>
            <type>eighth</type>
        
            <staff>1</staff>
            <beam number="1">begin</beam>
         </note>
         <note default-x="69">
            <pitch>
               <step>A</step>
               <octave>3</octave>
            </pitch>
            <duration>1</duration>
            <voice>1</voice>
            <type>16th</type>
            <accidental>natural</accidental>
        
            <staff>1</staff>
            <beam number="1">continue</beam>
            <beam number="2">begin</beam>
         </note>
         <note default-x="69">
            <chord/>
            <pitch>
               <step>A</step>
               <octave>4</octave>
            </pitch>
            <duration>1</duration>
            <voice>1</voice>
            <type>16th</type>
            <accidental>natural</accidental>
        
            <staff>1</staff>
         </note>
         <note default-x="94">
            <pitch>
               <step>F</step>
               <octave>4</octave>
            </pitch>
            <duration>1</duration>
            <voice>1</voice>
            <type>16th</type>
        
            <staff>1</staff>
            <beam number="1">end</beam>
            <beam number="2">end</beam>
         </note>
         <note default-x="118">
            <pitch>
               <step>F</step>
               <octave>4</octave>
            </pitch>
            <duration>2</duration>
            <voice>1</voice>
            <type>eighth</type>
        
            <staff>1</staff>
            <beam number="1">begin</beam>
         </note>
         <note default-x="163">
            <pitch>
               <step>B</step>
               <alter>-1</alter>
               <octave>3</octave>
            </pitch>
            <duration>2</duration>
            <voice>1</voice>
            <type>eighth</type>
        
            <staff>1</staff>
            <beam number="1">end</beam>
         </note>
         <note default-x="163">
            <chord/>
            <pitch>
               <step>G</step>
               <octave>4</octave>
            </pitch>
            <duration>2</duration>
            <voice>1</voice>
            <type>eighth</type>
            <accidental>natural</accidental>
        
            <staff>1</staff>
         </note>
         <note default-x="211">
            <pitch>
               <step>C</step>
               <octave>4</octave>
            </pitch>
            <duration>2</duration>
            <voice>1</voice>
            <type>eighth</type>
        
            <staff>1</staff>
            <beam number="1">begin</beam>
         </note>
         <note default-x="211">
            <chord/>
            <pitch>
               <step>A</step>
               <octave>4</octave>
            </pitch>
            <duration>2</duration>
            <voice>1</voice>
            <type>eighth</type>
        
            <staff>1</staff>
         </note>
         <note default-x="266">
            <pitch>
               <step>F</step>
               <octave>4</octave>
            </pitch>
            <duration>2</duration>
            <voice>1</voice>
            <type>eighth</type>
        
            <staff>1</staff>
            <beam number="1">end</beam>
         </note>
         <backup>
            <duration>12</duration>
         </backup>
         <note default-x="25">
            <rest/>
            <duration>1</duration>
            <voice>2</voice>
            <type>16th</type>
            <staff>2</staff>
         </note>
         <note default-x="47">
            <pitch>
               <step>C</step>
               <octave>3</octave>
            </pitch>
            <duration>1</duration>
            <voice>2</voice>
            <type>16th</type>
        
            <staff>2</staff>
            <beam number="1">begin</beam>
            <beam number="2">begin</beam>
            <notations>
               <slur number="1" placement="above" type="start"/>
            </notations>
         </note>
         <note default-x="69">
            <pitch>
               <step>F</step>
               <octave>3</octave>
            </pitch>
            <duration>1</duration>
            <voice>2</voice>
            <type>16th</type>
        
            <staff>2</staff>
            <beam number="1">continue</beam>
            <beam number="2">continue</beam>
         </note>
         <note default-x="94">
            <pitch>
               <step>C</step>
               <octave>4</octave>
            </pitch>
            <duration>1</duration>
            <voice>2</voice>
            <type>16th</type>
        
            <staff>2</staff>
            <beam number="1">end</beam>
            <beam number="2">end</beam>
            <notations>
               <slur number="1" type="stop"/>
            </notations>
         </note>
         <note default-x="118">
            <rest/>
            <duration>1</duration>
            <voice>2</voice>
            <type>16th</type>
            <staff>2</staff>
         </note>
         <note default-x="140">
            <pitch>
               <step>B</step>
               <alter>-1</alter>
               <octave>2</octave>
            </pitch>
            <duration>1</duration>
            <voice>2</voice>
            <type>16th</type>
        
            <staff>2</staff>
            <beam number="1">begin</beam>
            <beam number="2">begin</beam>
            <notations>
               <slur number="1" placement="above" type="start"/>
            </notations>
         </note>
         <note default-x="163">
            <pitch>
               <step>F</step>
               <octave>3</octave>
            </pitch>
            <duration>1</duration>
            <voice>2</voice>
            <type>16th</type>
        
            <staff>2</staff>
            <beam number="1">continue</beam>
            <beam number="2">continue</beam>
         </note>
         <note default-x="187">
            <pitch>
               <step>D</step>
               <alter>-1</alter>
               <octave>4</octave>
            </pitch>
            <duration>1</duration>
            <voice>2</voice>
            <type>16th</type>
        
            <staff>2</staff>
            <beam number="1">end</beam>
            <beam number="2">end</beam>
            <notations>
               <slur number="1" type="stop"/>
            </notations>
         </note>
         <note default-x="211">
            <rest/>
            <duration>1</duration>
            <voice>2</voice>
            <type>16th</type>
            <staff>2</staff>
         </note>
         <note default-x="239">
            <pitch>
               <step>F</step>
               <octave>2</octave>
            </pitch>
            <duration>1</duration>
            <voice>2</voice>
            <type>16th</type>
        
            <staff>2</staff>
            <beam number="1">begin</beam>
            <beam number="2">begin</beam>
            <notations>
               <slur number="1" placement="below" type="start"/>
            </notations>
         </note>
         <note default-x="266">
            <pitch>
               <step>C</step>
               <octave>3</octave>
            </pitch>
            <duration>1</duration>
            <voice>2</voice>
            <type>16th</type>
        
            <staff>2</staff>
            <beam number="1">continue</beam>
            <beam number="2">continue</beam>
         </note>
         <note default-x="291">
            <pitch>
               <step>A</step>
               <octave>3</octave>
            </pitch>
            <duration>1</duration>
            <voice>2</voice>
            <type>16th</type>
            <accidental>natural</accidental>
        
            <staff>2</staff>
            <beam number="1">end</beam>
            <beam number="2">end</beam>
            <notations>
               <slur number="1" type="stop"/>
            </notations>
         </note>
      </measure>
      <!--=======================================================-->
      <measure number="7" width="535">
         <print new-system="yes">
            <staff-layout number="1">
               <staff-distance>92</staff-distance>
            </staff-layout>
         </print>
         <direction placement="below">
            <direction-type>
               <words default-y="-72" font-style="italic" relative-x="-5">sempre cantabile</words>
            </direction-type>
            <staff>1</staff>
         </direction>
         <note default-x="119">
            <pitch>
               <step>B</step>
               <alter>-1</alter>
               <octave>4</octave>
            </pitch>
            <duration>4</duration>
            <voice>1</voice>
            <type>quarter</type>
        
            <staff>1</staff>
         </note>
         <note default-x="257">
            <pitch>
               <step>G</step>
               <alter>-1</alter>
               <octave>4</octave>
            </pitch>
            <duration>4</duration>
            <voice>1</voice>
            <type>quarter</type>
            <accidental>flat</accidental>
        
            <staff>1</staff>
         </note>
         <note default-x="395">
            <pitch>
               <step>E</step>
               <alter>-1</alter>
               <octave>4</octave>
            </pitch>
            <duration>4</duration>
            <voice>1</voice>
            <type>quarter</type>
        
            <staff>1</staff>
         </note>
         <backup>
            <duration>12</duration>
         </backup>
         <note default-x="119">
            <rest/>
            <duration>1</duration>
            <voice>2</voice>
            <type>16th</type>
            <staff>2</staff>
         </note>
         <note default-x="153">
            <pitch>
               <step>D</step>
               <octave>2</octave>
            </pitch>
            <duration>1</duration>
            <voice>2</voice>
            <type>16th</type>
            <accidental>natural</accidental>
        
            <staff>2</staff>
            <beam number="1">begin</beam>
            <beam number="2">begin</beam>
            <notations>
               <slur number="1" placement="below" type="start"/>
            </notations>
         </note>
         <note default-x="188">
            <pitch>
               <step>B</step>
               <alter>-1</alter>
               <octave>2</octave>
            </pitch>
            <duration>1</duration>
            <voice>2</voice>
            <type>16th</type>
        
            <staff>2</staff>
            <beam number="1">continue</beam>
            <beam number="2">continue</beam>
         </note>
         <note default-x="223">
            <pitch>
               <step>F</step>
               <octave>3</octave>
            </pitch>
            <duration>1</duration>
            <voice>2</voice>
            <type>16th</type>
        
            <staff>2</staff>
            <beam number="1">end</beam>
            <beam number="2">end</beam>
            <notations>
               <slur number="1" type="stop"/>
            </notations>
         </note>
         <note default-x="257">
            <rest/>
            <duration>1</duration>
            <voice>2</voice>
            <type>16th</type>
            <staff>2</staff>
         </note>
         <note default-x="291">
            <pitch>
               <step>E</step>
               <alter>-1</alter>
               <octave>2</octave>
            </pitch>
            <duration>1</duration>
            <voice>2</voice>
            <type>16th</type>
        
            <staff>2</staff>
            <beam number="1">begin</beam>
            <beam number="2">begin</beam>
            <notations>
               <slur number="1" placement="below" type="start"/>
            </notations>
         </note>
         <note default-x="326">
            <pitch>
               <step>B</step>
               <alter>-1</alter>
               <octave>2</octave>
            </pitch>
            <duration>1</duration>
            <voice>2</voice>
            <type>16th</type>
        
            <staff>2</staff>
            <beam number="1">continue</beam>
            <beam number="2">continue</beam>
         </note>
         <note default-x="360">
            <pitch>
               <step>G</step>
               <alter>-1</alter>
               <octave>3</octave>
            </pitch>
            <duration>1</duration>
            <voice>2</voice>
            <type>16th</type>
        
            <staff>2</staff>
            <beam number="1">end</beam>
            <beam number="2">end</beam>
            <notations>
               <slur number="1" type="stop"/>
            </notations>
         </note>
         <note default-x="395">
            <rest/>
            <duration>1</duration>
            <voice>2</voice>
            <type>16th</type>
            <staff>2</staff>
         </note>
         <note default-x="429">
            <pitch>
               <step>G</step>
               <alter>-1</alter>
               <octave>2</octave>
            </pitch>
            <duration>1</duration>
            <voice>2</voice>
            <type>16th</type>
        
            <staff>2</staff>
            <beam number="1">begin</beam>
            <beam number="2">begin</beam>
            <notations>
               <slur number="1" placement="above" type="start"/>
            </notations>
         </note>
         <note default-x="464">
            <pitch>
               <step>E</step>
               <alter>-1</alter>
               <octave>3</octave>
            </pitch>
            <duration>1</duration>
            <voice>2</voice>
            <type>16th</type>
        
            <staff>2</staff>
            <beam number="1">continue</beam>
            <beam number="2">continue</beam>
         </note>
         <note default-x="498">
            <pitch>
               <step>B</step>
               <alter>-1</alter>
               <octave>3</octave>
            </pitch>
            <duration>1</duration>
            <voice>2</voice>
            <type>16th</type>
        
            <staff>2</staff>
            <beam number="1">end</beam>
            <beam number="2">end</beam>
            <notations>
               <slur number="1" type="stop"/>
            </notations>
         </note>
      </measure>
      <!--=======================================================-->
      <measure number="8" width="342">
         <note default-x="13">
            <pitch>
               <step>B</step>
               <alter>-1</alter>
               <octave>4</octave>
            </pitch>
            <duration>2</duration>
            <voice>1</voice>
            <type>eighth</type>
        
            <staff>1</staff>
            <beam number="1">begin</beam>
         </note>
         <note default-x="60">
            <pitch>
               <step>C</step>
               <octave>5</octave>
            </pitch>
            <duration>1</duration>
            <voice>1</voice>
            <type>16th</type>
        
            <staff>1</staff>
            <beam number="1">continue</beam>
            <beam number="2">begin</beam>
         </note>
         <note default-x="90">
            <pitch>
               <step>B</step>
               <alter>-1</alter>
               <octave>4</octave>
            </pitch>
            <duration>1</duration>
            <voice>1</voice>
            <type>16th</type>
        
            <staff>1</staff>
            <beam number="1">end</beam>
            <beam number="2">end</beam>
         </note>
         <note default-x="119">
            <pitch>
               <step>G</step>
               <alter>-1</alter>
               <octave>4</octave>
            </pitch>
            <duration>1</duration>
            <voice>1</voice>
            <type>16th</type>
        
            <staff>1</staff>
            <beam number="1">begin</beam>
            <beam number="2">begin</beam>
         </note>
         <note default-x="148">
            <pitch>
               <step>A</step>
               <alter>-1</alter>
               <octave>4</octave>
            </pitch>
            <duration>1</duration>
            <voice>1</voice>
            <type>16th</type>
        
            <staff>1</staff>
            <beam number="1">continue</beam>
            <beam number="2">end</beam>
         </note>
         <note default-x="176">
            <pitch>
               <step>B</step>
               <alter>-1</alter>
               <octave>4</octave>
            </pitch>
            <duration>2</duration>
            <voice>1</voice>
            <type>eighth</type>
        
            <staff>1</staff>
            <beam number="1">end</beam>
         </note>
         <note default-x="224">
            <pitch>
               <step>C</step>
               <octave>5</octave>
            </pitch>
            <duration>1</duration>
            <voice>1</voice>
            <type>16th</type>
        
            <staff>1</staff>
            <beam number="1">begin</beam>
            <beam number="2">begin</beam>
         </note>
         <note default-x="253">
            <pitch>
               <step>B</step>
               <alter>-1</alter>
               <octave>4</octave>
            </pitch>
            <duration>1</duration>
            <voice>1</voice>
            <type>16th</type>
        
            <staff>1</staff>
            <beam number="1">continue</beam>
            <beam number="2">continue</beam>
         </note>
         <note default-x="282">
            <pitch>
               <step>G</step>
               <alter>-1</alter>
               <octave>4</octave>
            </pitch>
            <duration>1</duration>
            <voice>1</voice>
            <type>16th</type>
        
            <staff>1</staff>
            <beam number="1">continue</beam>
            <beam number="2">continue</beam>
         </note>
         <note default-x="311">
            <pitch>
               <step>A</step>
               <alter>-1</alter>
               <octave>4</octave>
            </pitch>
            <duration>1</duration>
            <voice>1</voice>
            <type>16th</type>
        
            <staff>1</staff>
            <beam number="1">end</beam>
            <beam number="2">end</beam>
         </note>
         <backup>
            <duration>12</duration>
         </backup>
         <note default-x="13">
            <rest/>
            <duration>2</duration>
            <voice>2</voice>
            <type>eighth</type>
            <staff>2</staff>
         </note>
         <note default-x="60">
            <pitch>
               <step>A</step>
               <alter>-1</alter>
               <octave>2</octave>
            </pitch>
            <duration>2</duration>
            <voice>2</voice>
            <type>eighth</type>
        
            <staff>2</staff>
         </note>
         <note default-x="60">
            <chord/>
            <pitch>
               <step>G</step>
               <alter>-1</alter>
               <octave>3</octave>
            </pitch>
            <duration>2</duration>
            <voice>2</voice>
            <type>eighth</type>
        
            <staff>2</staff>
         </note>
         <note default-x="119">
            <rest/>
            <duration>2</duration>
            <voice>2</voice>
            <type>eighth</type>
            <staff>2</staff>
         </note>
         <note default-x="176">
            <pitch>
               <step>G</step>
               <alter>-1</alter>
               <octave>3</octave>
            </pitch>
            <duration>2</duration>
            <voice>2</voice>
            <type>eighth</type>
        
            <staff>2</staff>
         </note>
         <note default-x="176">
            <chord/>
            <pitch>
               <step>C</step>
               <octave>4</octave>
            </pitch>
            <duration>2</duration>
            <voice>2</voice>
            <type>eighth</type>
        
            <staff>2</staff>
         </note>
         <note default-x="176">
            <chord/>
            <pitch>
               <step>E</step>
               <alter>-1</alter>
               <octave>4</octave>
            </pitch>
            <duration>2</duration>
            <voice>2</voice>
            <type>eighth</type>
        
            <staff>2</staff>
         </note>
         <note default-x="224">
            <rest/>
            <duration>2</duration>
            <voice>2</voice>
            <type>eighth</type>
            <staff>2</staff>
         </note>
         <note default-x="282">
            <pitch>
               <step>A</step>
               <alter>-1</alter>
               <octave>1</octave>
            </pitch>
            <duration>2</duration>
            <voice>2</voice>
            <type>eighth</type>
        
            <staff>2</staff>
         </note>
         <note default-x="282">
            <chord/>
            <pitch>
               <step>A</step>
               <alter>-1</alter>
               <octave>2</octave>
            </pitch>
            <duration>2</duration>
            <voice>2</voice>
            <type>eighth</type>
        
            <staff>2</staff>
         </note>
      </measure>
      <!--=======================================================-->
      <measure number="9" width="430">
         <note default-x="14">
            <pitch>
               <step>B</step>
               <alter>-1</alter>
               <octave>4</octave>
            </pitch>
            <duration>4</duration>
            <voice>1</voice>
            <type>quarter</type>
        
            <staff>1</staff>
         </note>
         <note default-x="149">
            <pitch>
               <step>G</step>
               <alter>-1</alter>
               <octave>4</octave>
            </pitch>
            <duration>4</duration>
            <voice>1</voice>
            <type>quarter</type>
        
            <staff>1</staff>
         </note>
         <note default-x="284">
            <pitch>
               <step>E</step>
               <alter>-1</alter>
               <octave>4</octave>
            </pitch>
            <duration>4</duration>
            <voice>1</voice>
            <type>quarter</type>
        
            <staff>1</staff>
         </note>
         <backup>
            <duration>12</duration>
         </backup>
         <note default-x="14">
            <rest/>
            <duration>1</duration>
            <voice>2</voice>
            <type>16th</type>
            <staff>2</staff>
         </note>
         <note default-x="48">
            <pitch>
               <step>D</step>
               <octave>2</octave>
            </pitch>
            <duration>1</duration>
            <voice>2</voice>
            <type>16th</type>
            <accidental>natural</accidental>
        
            <staff>2</staff>
            <beam number="1">begin</beam>
            <beam number="2">begin</beam>
            <notations>
               <slur number="1" placement="below" type="start"/>
            </notations>
         </note>
         <note default-x="82">
            <pitch>
               <step>B</step>
               <alter>-1</alter>
               <octave>2</octave>
            </pitch>
            <duration>1</duration>
            <voice>2</voice>
            <type>16th</type>
        
            <staff>2</staff>
            <beam number="1">continue</beam>
            <beam number="2">continue</beam>
         </note>
         <note default-x="115">
            <pitch>
               <step>F</step>
               <octave>3</octave>
            </pitch>
            <duration>1</duration>
            <voice>2</voice>
            <type>16th</type>
        
            <staff>2</staff>
            <beam number="1">end</beam>
            <beam number="2">end</beam>
            <notations>
               <slur number="1" type="stop"/>
            </notations>
         </note>
         <note default-x="149">
            <rest/>
            <duration>1</duration>
            <voice>2</voice>
            <type>16th</type>
            <staff>2</staff>
         </note>
         <note default-x="183">
            <pitch>
               <step>E</step>
               <alter>-1</alter>
               <octave>2</octave>
            </pitch>
            <duration>1</duration>
            <voice>2</voice>
            <type>16th</type>
        
            <staff>2</staff>
            <beam number="1">begin</beam>
            <beam number="2">begin</beam>
            <notations>
               <slur number="1" placement="below" type="start"/>
            </notations>
         </note>
         <note default-x="217">
            <pitch>
               <step>B</step>
               <alter>-1</alter>
               <octave>2</octave>
            </pitch>
            <duration>1</duration>
            <voice>2</voice>
            <type>16th</type>
        
            <staff>2</staff>
            <beam number="1">continue</beam>
            <beam number="2">continue</beam>
         </note>
         <note default-x="250">
            <pitch>
               <step>G</step>
               <alter>-1</alter>
               <octave>3</octave>
            </pitch>
            <duration>1</duration>
            <voice>2</voice>
            <type>16th</type>
        
            <staff>2</staff>
            <beam number="1">end</beam>
            <beam number="2">end</beam>
            <notations>
               <slur number="1" type="stop"/>
            </notations>
         </note>
         <note default-x="284">
            <rest/>
            <duration>1</duration>
            <voice>2</voice>
            <type>16th</type>
            <staff>2</staff>
         </note>
         <note default-x="318">
            <pitch>
               <step>G</step>
               <alter>-1</alter>
               <octave>2</octave>
            </pitch>
            <duration>1</duration>
            <voice>2</voice>
            <type>16th</type>
        
            <staff>2</staff>
            <beam number="1">begin</beam>
            <beam number="2">begin</beam>
            <notations>
               <slur number="1" placement="above" type="start"/>
            </notations>
         </note>
         <note default-x="352">
            <pitch>
               <step>E</step>
               <alter>-1</alter>
               <octave>3</octave>
            </pitch>
            <duration>1</duration>
            <voice>2</voice>
            <type>16th</type>
        
            <staff>2</staff>
            <beam number="1">continue</beam>
            <beam number="2">continue</beam>
         </note>
         <note default-x="386">
            <pitch>
               <step>B</step>
               <alter>-1</alter>
               <octave>3</octave>
            </pitch>
            <duration>1</duration>
            <voice>2</voice>
            <type>16th</type>
        
            <staff>2</staff>
            <beam number="1">end</beam>
            <beam number="2">end</beam>
            <notations>
               <slur number="1" type="stop"/>
            </notations>
         </note>
         <barline location="right">
            <bar-style>light-heavy</bar-style>
         </barline>
      </measure>
  </part>
  <!--=========================================================-->
</score-partwise>
