<?xml version="1.0" encoding="UTF-8" standalone="no"?>
<!DOCTYPE score-partwise
  PUBLIC "-//Recordare//DTD MusicXML 3.1 Partwise//EN" "http://www.musicxml.org/dtds/partwise.dtd">
<score-partwise version="3.1">
  <part-list>
      <score-part id="P1">
         <part-name>Music</part-name>
      </score-part>
  </part-list>
  <part id="P1">
      <measure number="1">
         <attributes>
            <divisions>1</divisions>
            <key>
               <fifths>-4</fifths>
            </key>
            <time>
               <beats>4</beats>
               <beat-type>4</beat-type>
            </time>
            <clef>
               <sign>G</sign>
               <line>2</line>
            </clef>
         </attributes>
         <note>
            <pitch>
               <step>A</step>
               <alter>-1</alter>
               <octave>3</octave>
            </pitch>
            <duration>4</duration>
            <type>whole</type>
         </note>
      </measure>
      <measure number="2">
         <note>
            <pitch>
               <step>B</step>
               <alter>-1</alter>
               <octave>3</octave>
            </pitch>
            <duration>4</duration>
            <type>whole</type>
         </note>
      </measure>
      <measure number="3">
         <note>
            <pitch>
               <step>C</step>
               <octave>4</octave>
            </pitch>
            <duration>4</duration>
            <type>whole</type>
         </note>
      </measure>
      <measure number="4">
         <note>
            <pitch>
               <step>D</step>
               <alter>-1</alter>
               <octave>4</octave>
            </pitch>
            <duration>4</duration>
            <type>whole</type>
         </note>
      </measure>
      <measure number="5">
         <note>
            <pitch>
               <step>E</step>
               <alter>-1</alter>
               <octave>4</octave>
            </pitch>
            <duration>4</duration>
            <type>whole</type>
         </note>
      </measure>
      <measure number="6">
         <note>
            <pitch>
               <step>F</step>
               <octave>4</octave>
            </pitch>
            <duration>4</duration>
            <type>whole</type>
         </note>
      </measure>
      <measure number="7">
         <note>
            <pitch>
               <step>G</step>
               <octave>4</octave>
            </pitch>
            <duration>4</duration>
            <type>whole</type>
         </note>
      </measure>
      <measure number="8">
         <note>
            <pitch>
               <step>A</step>
               <alter>-1</alter>
               <octave>4</octave>
            </pitch>
            <duration>4</duration>
            <type>whole</type>
         </note>
      </measure>
      <!-- -->
      <measure number="9">
         <attributes>
            <divisions>1</divisions>
            <key>
               <cancel>-4</cancel>
               <fifths>-3</fifths>
            </key>
         </attributes>
         <note>
            <pitch>
               <step>E</step>
               <alter>-1</alter>
               <octave>3</octave>
            </pitch>
            <duration>4</duration>
            <type>whole</type>
         </note>
      </measure>
      <measure number="10">
         <note>
            <pitch>
               <step>F</step>
               <octave>3</octave>
            </pitch>
            <duration>4</duration>
            <type>whole</type>
         </note>
      </measure>
      <measure number="11">
         <note>
            <pitch>
               <step>G</step>
               <octave>3</octave>
            </pitch>
            <duration>4</duration>
            <type>whole</type>
         </note>
      </measure>
      <measure number="12">
         <note>
            <pitch>
               <step>A</step>
               <alter>-1</alter>
               <octave>3</octave>
            </pitch>
            <duration>4</duration>
            <type>whole</type>
         </note>
      </measure>
      <measure number="13">
         <note>
            <pitch>
               <step>B</step>
               <alter>-1</alter>
               <octave>3</octave>
            </pitch>
            <duration>4</duration>
            <type>whole</type>
         </note>
      </measure>
      <measure number="14">
         <note>
            <pitch>
               <step>C</step>
               <octave>4</octave>
            </pitch>
            <duration>4</duration>
            <type>whole</type>
         </note>
      </measure>
      <measure number="7">
         <note>
            <pitch>
               <step>D</step>
               <octave>4</octave>
            </pitch>
            <duration>4</duration>
            <type>whole</type>
         </note>
      </measure>
      <measure number="15">
         <note>
            <pitch>
               <step>E</step>
               <alter>-1</alter>
               <octave>4</octave>
            </pitch>
            <duration>4</duration>
            <type>whole</type>
         </note>
      </measure>
      <!-- -->
      <measure number="16">
         <attributes>
            <key>
               <cancel>-3</cancel>
               <fifths>3</fifths>
            </key>
         </attributes>
         <note>
            <pitch>
               <step>A</step>
               <octave>3</octave>
            </pitch>
            <duration>4</duration>
            <type>whole</type>
         </note>
      </measure>
      <measure number="17">
         <note>
            <pitch>
               <step>B</step>
               <octave>3</octave>
            </pitch>
            <duration>4</duration>
            <type>whole</type>
         </note>
      </measure>
      <measure number="18">
         <note>
            <pitch>
               <step>C</step>
               <alter>1</alter>
               <octave>4</octave>
            </pitch>
            <duration>4</duration>
            <type>whole</type>
         </note>
      </measure>
      <measure number="19">
         <note>
            <pitch>
               <step>D</step>
               <octave>4</octave>
            </pitch>
            <duration>4</duration>
            <type>whole</type>
         </note>
      </measure>
      <measure number="20">
         <note>
            <pitch>
               <step>E</step>
               <octave>4</octave>
            </pitch>
            <duration>4</duration>
            <type>whole</type>
         </note>
      </measure>
      <measure number="21">
         <note>
            <pitch>
               <step>F</step>
               <alter>1</alter>
               <octave>4</octave>
            </pitch>
            <duration>4</duration>
            <type>whole</type>
         </note>
      </measure>
      <measure number="22">
         <note>
            <pitch>
               <step>G</step>
               <alter>1</alter>
               <octave>4</octave>
            </pitch>
            <duration>4</duration>
            <type>whole</type>
         </note>
      </measure>
      <measure number="23">
         <note>
            <pitch>
               <step>A</step>
               <octave>4</octave>
            </pitch>
            <duration>4</duration>
            <type>whole</type>
         </note>
      </measure>
  </part>
</score-partwise>
